<svg xmlns="http://www.w3.org/2000/svg" viewBox="0 0 64 64" fill="none">
  <defs>
    <linearGradient id="cGradient" x1="0%" y1="0%" x2="100%" y2="100%">
      <stop offset="0%" stop-color="#A3E635"/>
      <stop offset="50%" stop-color="#22C55E"/>
      <stop offset="100%" stop-color="#15803D"/>
    </linearGradient>
    <linearGradient id="cubeTop" x1="0%" y1="0%" x2="100%" y2="100%">
      <stop offset="0%" stop-color="#BBF7D0"/>
      <stop offset="100%" stop-color="#4ADE80"/>
    </linearGradient>
    <linearGradient id="cubeRight" x1="0%" y1="0%" x2="100%" y2="100%">
      <stop offset="0%" stop-color="#22C55E"/>
      <stop offset="100%" stop-color="#14532D"/>
    </linearGradient>
  </defs>

  <!-- 3D "C" shape -->
  <path d="M48 8 C24 8 6 22 6 32 C6 42 24 56 48 56 L50 45 C32 45 19 38 19 32 C19 26 32 19 50 19 Z" fill="url(#cGradient)"/>
  <!-- Inner shadow curve -->
  <path d="M48 16 C32 16 21 24 21 32 C21 40 32 48 48 48 L50 38 C39 38 32 34 32 32 C32 30 39 22 50 22 Z" fill="#166534" opacity="0.35"/>

  <!-- 3D isometric cube accent -->
  <g transform="translate(46 6)">
    <path d="M9 0 L18 4.5 L9 9 L0 4.5 Z" fill="url(#cubeTop)"/>
    <path d="M0 4.5 L9 9 L9 18 L0 13.5 Z" fill="url(#cGradient)"/>
    <path d="M18 4.5 L9 9 L9 18 L18 13.5 Z" fill="url(#cubeRight)"/>
  </g>
</svg>
